<svg xmlns="http://www.w3.org/2000/svg" xmlns:xlink="http://www.w3.org/1999/xlink" width="500" zoomAndPan="magnify" viewBox="0 0 375 374.999991" height="500" preserveAspectRatio="xMidYMid meet" version="1.0"><path fill="#ffffff" d="M 102.652344 54.699219 C 90.878906 56.664062 89.507812 57.839844 47.222656 100.023438 C 4.449219 142.699219 2.980469 144.5625 0.820312 156.828125 C -0.554688 164.96875 0.625 172.523438 4.746094 180.761719 C 7.199219 185.863281 17.695312 196.753906 86.855469 265.722656 C 157 335.667969 166.714844 344.988281 171.324219 346.949219 C 178.878906 350.089844 186.136719 351.070312 193.300781 349.894531 C 206.839844 347.734375 203.304688 350.875 288.363281 265.722656 C 331.429688 222.75 367.628906 185.765625 369.003906 183.609375 C 373.125 176.9375 374.890625 169.285156 374.398438 160.261719 C 373.613281 145.742188 373.613281 145.742188 329.859375 101.789062 C 305.53125 77.363281 289.246094 61.765625 286.007812 59.800781 C 278.160156 55.09375 269.132812 53.128906 260.597656 54.503906 C 248.238281 56.367188 246.175781 57.9375 216.15625 88.054688 C 201.050781 103.164062 188.296875 115.523438 187.804688 115.523438 C 187.21875 115.523438 174.367188 103.164062 159.257812 88.054688 C 129.433594 58.429688 127.179688 56.664062 114.914062 54.699219 C 108.636719 53.621094 109.125 53.621094 102.652344 54.699219 Z M 273.546875 77.753906 C 277.667969 79.816406 283.164062 86.683594 283.847656 90.3125 C 284.535156 93.941406 283.0625 98.0625 278.945312 103.652344 C 277.082031 106.203125 276.492188 108.167969 276.492188 111.894531 L 276.492188 116.898438 L 293.367188 133.871094 C 311.613281 152.214844 313.867188 153.6875 320.734375 151.824219 C 322.699219 151.234375 324.855469 150.15625 325.640625 149.273438 C 327.800781 146.625 332.117188 144.957031 336.824219 144.957031 C 340.75 144.957031 341.828125 145.445312 345.851562 149.074219 C 352.523438 155.355469 354.679688 162.125 351.933594 169.1875 C 351.050781 171.640625 296.503906 227.363281 295.03125 227.363281 C 294.640625 227.363281 293.757812 225.988281 293.070312 224.222656 C 291.109375 219.515625 279.730469 207.9375 274.039062 204.996094 C 269.820312 202.738281 267.859375 202.347656 260.796875 202.347656 C 254.125 202.347656 251.574219 202.738281 247.945312 204.601562 C 239.605469 208.722656 233.324219 216.472656 231.558594 225.105469 C 230.875 228.539062 230.480469 228.835938 225.28125 230.402344 C 214.882812 233.445312 207.328125 241.097656 204.289062 251.496094 C 202.914062 256.402344 202.71875 256.597656 198.203125 257.675781 C 193.988281 258.753906 183.292969 265.035156 183.292969 266.507812 C 183.195312 266.800781 182.3125 268.171875 181.234375 269.449219 L 179.269531 271.902344 L 166.8125 259.539062 C 153.371094 246.296875 151.703125 245.019531 146.996094 245.019531 C 142.285156 245.019531 137.183594 250.515625 137.183594 255.421875 C 137.183594 258.855469 138.164062 260.03125 151.015625 273.078125 L 164.851562 287.007812 L 160.53125 290.050781 C 158.277344 291.71875 155.433594 294.367188 154.351562 296.035156 C 153.273438 297.605469 151.898438 298.976562 151.3125 298.976562 C 150.820312 298.976562 139.441406 288.089844 126.195312 274.648438 C 101.574219 249.925781 99.90625 247.671875 99.90625 240.605469 C 100.003906 235.40625 104.515625 229.914062 129.628906 204.898438 L 155.726562 178.898438 L 160.925781 183.804688 C 174.367188 196.460938 194.085938 199.304688 210.957031 190.867188 C 216.84375 187.828125 237.25 169.578125 237.25 167.128906 C 237.25 166.539062 229.5 158.296875 220.082031 148.878906 L 202.914062 131.710938 L 229.695312 104.929688 C 258.046875 76.675781 260.5 74.714844 267.664062 75.890625 C 269.527344 76.183594 272.175781 77.066406 273.546875 77.753906 Z M 115.894531 77.363281 C 117.074219 77.949219 137.96875 98.355469 162.398438 122.6875 C 210.273438 170.460938 208.210938 167.8125 201.050781 171.34375 C 190.847656 176.546875 182.800781 174.582031 171.71875 164.183594 C 156.019531 149.566406 146.699219 146.820312 120.015625 149.273438 C 108.242188 150.351562 104.027344 148.683594 94.019531 138.578125 C 89.996094 134.558594 86.269531 131.222656 85.679688 131.222656 C 85.089844 131.222656 81.363281 134.558594 77.339844 138.675781 L 69.984375 146.035156 L 79.007812 154.863281 C 89.605469 165.164062 98.042969 169.777344 109.519531 171.445312 C 116.191406 172.523438 126.785156 171.738281 131.691406 169.875 C 132.574219 169.578125 133.261719 169.679688 133.261719 170.070312 C 133.261719 170.460938 122.078125 182.136719 108.34375 195.96875 C 90.390625 214.019531 83.128906 221.96875 82.148438 224.617188 C 81.460938 226.675781 80.578125 228.34375 80.285156 228.34375 C 78.910156 228.34375 25.347656 173.503906 23.875 170.5625 C 21.816406 166.441406 21.816406 159.867188 23.777344 155.550781 C 25.640625 151.625 97.160156 79.914062 101.375 77.851562 C 104.808594 76.085938 112.855469 75.792969 115.894531 77.363281 Z M 322.796875 126.023438 C 326.621094 129.457031 323.484375 135.636719 318.085938 134.949219 C 316.320312 134.753906 314.75 133.671875 313.867188 132.105469 C 312.59375 129.75 312.59375 129.257812 314.066406 126.90625 C 316.027344 123.960938 320.050781 123.472656 322.796875 126.023438 Z M 268.445312 227.753906 C 273.546875 232.5625 275.511719 235.996094 275.511719 240.117188 C 275.511719 243.941406 273.449219 248.945312 270.898438 251.105469 C 269.035156 252.769531 268.742188 252.574219 260.5 244.136719 C 253.339844 236.878906 251.964844 234.917969 251.964844 232.367188 C 251.964844 228.050781 253.535156 225.5 257.066406 223.929688 C 261.1875 222.261719 263.542969 223.046875 268.445312 227.753906 Z M 245.394531 259.441406 L 254.027344 267.976562 L 247.84375 274.15625 L 241.566406 280.4375 L 233.03125 271.707031 C 225.476562 263.855469 224.496094 262.582031 224.496094 259.34375 C 224.496094 254.339844 228.027344 250.90625 233.03125 250.90625 C 236.367188 250.90625 237.640625 251.789062 245.394531 259.441406 Z M 217.921875 286.910156 L 226.558594 295.445312 L 214.097656 307.90625 L 205.5625 299.175781 C 198.007812 291.324219 197.027344 290.050781 197.027344 286.8125 C 197.027344 281.808594 200.558594 278.375 205.5625 278.375 C 208.898438 278.375 210.171875 279.257812 217.921875 286.910156 Z M 190.355469 314.28125 C 195.066406 318.992188 198.695312 323.210938 198.402344 323.699219 C 197.519531 325.074219 190.0625 328.410156 187.707031 328.410156 C 183.292969 328.410156 178.386719 326.152344 174.070312 322.230469 C 170.246094 318.597656 169.558594 317.421875 169.558594 314.28125 C 169.558594 309.277344 173.089844 305.84375 178.09375 305.84375 C 181.429688 305.84375 182.703125 306.726562 190.355469 314.28125 Z M 190.355469 314.28125 " fill-opacity="1" fill-rule="nonzero"/></svg>